<?xml version="1.0" encoding="UTF-8"?> <svg xmlns="http://www.w3.org/2000/svg" xmlns:xlink="http://www.w3.org/1999/xlink" width="174.43" height="48" viewBox="0 0 174.43 48"><defs><clipPath id="clip-path"><rect id="Rectangle_163" data-name="Rectangle 163" width="44" height="44" transform="translate(169.589 43.589)" fill="none" stroke="#707070" stroke-width="1"></rect></clipPath></defs><g id="Group_168" data-name="Group 168" transform="translate(-160 -34)"><path id="Path_57" data-name="Path 57" d="M24.473-23.145H15.938V0H9.082V-23.145H.7v-5.293h23.77Zm14.1,7.969-2.168-.156q-3.105,0-3.984,1.953V0H25.84V-21.133h6.172l.215,2.715q1.66-3.105,4.629-3.105a6.419,6.419,0,0,1,1.836.234ZM52.266,0a7.432,7.432,0,0,1-.625-1.895A6.12,6.12,0,0,1,46.563.391a7.5,7.5,0,0,1-5.078-1.807,5.751,5.751,0,0,1-2.09-4.541,5.91,5.91,0,0,1,2.539-5.2q2.539-1.758,7.383-1.758h2.031v-1.113q0-2.91-2.52-2.91a2.055,2.055,0,0,0-2.344,2.3H39.9a5.909,5.909,0,0,1,2.607-4.98,10.948,10.948,0,0,1,6.65-1.914,9.607,9.607,0,0,1,6.387,1.973,6.858,6.858,0,0,1,2.4,5.41v9.355a9.581,9.581,0,0,0,.9,4.453V0ZM48.145-4.3a3.671,3.671,0,0,0,2.041-.527,3.305,3.305,0,0,0,1.162-1.191V-9.395H49.434Q46-9.395,46-6.309A1.884,1.884,0,0,0,46.6-4.854,2.191,2.191,0,0,0,48.145-4.3ZM69.727-7.832l3.34-13.3H80L73.105,0H66.387L59.492-21.133h6.953ZM91.934.391a10.863,10.863,0,0,1-7.871-2.9,10.016,10.016,0,0,1-3.008-7.549v-.547a12.978,12.978,0,0,1,1.2-5.723,8.789,8.789,0,0,1,3.506-3.838,10.584,10.584,0,0,1,5.469-1.357,9.148,9.148,0,0,1,7.031,2.764Q100.84-16,100.84-11.055V-8.5H87.754A4.744,4.744,0,0,0,89.3-5.7a4.591,4.591,0,0,0,3.086,1.016,5.915,5.915,0,0,0,4.883-2.187l3.008,3.555A8.408,8.408,0,0,1,96.787-.615,11.781,11.781,0,0,1,91.934.391Zm-.742-16.836q-2.891,0-3.437,3.828h6.641v-.508a3.26,3.26,0,0,0-.8-2.451A3.187,3.187,0,0,0,91.191-16.445ZM110.43,0h-6.6V-30h6.6Z" transform="translate(224 72)"></path><rect id="Rectangle_162" data-name="Rectangle 162" width="48" height="48" rx="8" transform="translate(160 34)" fill="#fff"></rect><g id="Mask_Group_20" data-name="Mask Group 20" transform="translate(-7.589 -9.589)" clip-path="url(#clip-path)"><g id="Group_127" data-name="Group 127" transform="translate(175.835 48.668)"><g id="Group_125" data-name="Group 125" transform="translate(0 0)"><circle id="Ellipse_49" data-name="Ellipse 49" cx="9.891" cy="9.891" r="9.891" transform="translate(3.019 8.256)" fill="#ffb97b"></circle><g id="Group_124" data-name="Group 124" transform="translate(0 0)"><g id="Group_122" data-name="Group 122" transform="translate(0)"><path id="Path_42" data-name="Path 42" d="M30.175,67.5v34.783H.052A80.432,80.432,0,0,0,17.614,87.841C25.009,79.347,30.175,67.5,30.175,67.5Z" transform="translate(-0.052 -67.495)" fill="#4b9fff"></path></g></g></g></g></g></g></svg> 